<?xml version="1.0" standalone="no"?>
<!DOCTYPE svg PUBLIC "-//W3C//DTD SVG 20010904//EN"
 "http://www.w3.org/TR/2001/REC-SVG-20010904/DTD/svg10.dtd">
<svg version="1.0" xmlns="http://www.w3.org/2000/svg"
 width="962.000000pt" height="962.000000pt" viewBox="0 0 962.000000 962.000000"
 preserveAspectRatio="xMidYMid meet">
<metadata>
Created by potrace 1.14, written by Peter Selinger 2001-2017
</metadata>
<g transform="translate(0.000000,962.000000) scale(0.100000,-0.100000)"
fill="#000000" stroke="none">
<path d="M873 8717 c-4 -6 -7 -3675 -4 -3847 l1 -26 563 1 562 0 2 1413 c0
777 3 1418 6 1425 3 9 316 12 1381 11 757 0 1376 2 1377 5 4 23 3 1014 -1
1019 -7 10 -3881 8 -3887 -1z"/>
<path d="M7395 8135 c-544 -541 -2123 -2112 -4619 -4596 -551 -548 -1365
-1359 -1810 -1801 l-808 -804 741 0 742 0 527 524 c290 288 1208 1202 2041
2031 2168 2158 2360 2349 3875 3855 751 748 1366 1362 1366 1365 0 3 -330 7
-732 9 l-733 3 -590 -586z"/>
<path d="M7639 4816 c-1 -6 -2 -644 -3 -1418 0 -773 -4 -1409 -8 -1413 -3 -4
-625 -6 -1382 -6 l-1376 0 0 -515 0 -514 1948 2 1947 3 1 1937 0 1937 -563 -1
c-404 -1 -563 -4 -564 -12z"/>
</g>
</svg>
